# xmcd
#
# Track frame offsets: 
#        150
#        32167
#        58437
#
# Disc length: 1198 seconds
#
# Revision: 3
# Processed by: cddbd v1.5.2PL0 Copyright (c) Steve Scherf et al.
# Submitted via: ExactAudioCopy v0.95b4
#
DISCID=2704ac03
DTITLE=Moahni Moahna - Face The Light
DYEAR=1992
DGENRE=Metal
TTITLE0=Face The Light
TTITLE1=The Quest For The Unholy Sword
TTITLE2=Eternal Slaves
EXTD=YEAR: 1992
EXTT0=
EXTT1=
EXTT2=
PLAYORDER=
